<svg width="118" height="127" viewBox="0 0 118 127" fill="none" xmlns="http://www.w3.org/2000/svg">
<circle cx="59.5" cy="68" r="10.75" stroke="#EEEEEE" stroke-width="21"/>
<circle cx="58.9688" cy="67.4688" r="56.4688" stroke="#EEEEEE" stroke-width="5"/>
<circle cx="59.5" cy="11.6875" r="6.1875" stroke="#EEEEEE" stroke-width="11"/>
<mask id="path-4-inside-1_4_45" fill="white">
<ellipse cx="62" cy="68.5" rx="9" ry="8.5"/>
</mask>
<path d="M62 68.5C62 68.3711 62.0304 68.2382 62.0788 68.13C62.1237 68.0298 62.1697 67.9811 62.1843 67.9673C62.211 67.9421 62.1663 68 62 68V86C71.4495 86 80 78.6427 80 68.5H62ZM62 68C61.8337 68 61.789 67.9421 61.8157 67.9673C61.8303 67.9811 61.8763 68.0298 61.9212 68.13C61.9696 68.2382 62 68.3711 62 68.5H44C44 78.6427 52.5505 86 62 86V68ZM62 68.5C62 68.6289 61.9696 68.7618 61.9212 68.87C61.8763 68.9702 61.8303 69.0189 61.8157 69.0327C61.789 69.0579 61.8337 69 62 69V51C52.5505 51 44 58.3573 44 68.5H62ZM62 69C62.1663 69 62.211 69.0579 62.1843 69.0327C62.1697 69.0189 62.1237 68.9702 62.0788 68.87C62.0304 68.7618 62 68.6289 62 68.5H80C80 58.3573 71.4495 51 62 51V69Z" fill="#EEEEEE" mask="url(#path-4-inside-1_4_45)"/>
</svg>
