<svg width="328" height="319" viewBox="0 0 328 319" fill="none" xmlns="http://www.w3.org/2000/svg">
<path d="M327.27 159.5C327.27 247.589 254.008 319 163.635 319C73.2618 319 0 247.589 0 159.5C0 71.4106 73.2618 0 163.635 0C254.008 0 327.27 71.4106 327.27 159.5Z" fill="#EEEEEE"/>
<path fill-rule="evenodd" clip-rule="evenodd" d="M219.83 149.461C243.282 120.892 267.386 76.9295 287.738 11L306.163 18.6642C285.153 86.7275 259.794 133.683 234.077 165.048C237.449 168.887 240.819 172.828 244.169 176.847C279.437 219.168 314.129 272.202 327 310.798L308.747 319C297.32 284.733 264.857 234.35 230.101 192.645C226.708 188.573 223.309 184.604 219.923 180.759C210.639 190.087 201.403 197.515 192.404 203.301C173.199 215.652 155.073 220.503 140.084 220.208C125.628 219.924 112.4 214.707 105.411 204.41C80.1982 167.263 97.9935 107.876 146.69 101.477C153.741 100.55 161.298 103.081 168.36 106.738C175.646 110.512 183.559 116.101 191.729 122.875C200.65 130.272 210.153 139.313 219.83 149.461ZM205.557 165.117C196.757 155.959 188.237 147.901 180.352 141.363C172.798 135.1 166.057 130.425 160.385 127.487C154.489 124.433 150.783 123.805 148.891 124.053C115.232 128.477 105.192 167.374 120.785 190.349C122.57 192.979 128.73 197.261 140.415 197.491C151.567 197.71 166.337 194.091 182.92 183.427C190.174 178.762 197.777 172.743 205.557 165.117Z" fill="#222831"/>
</svg>
