<svg width="128" height="70" viewBox="0 0 128 70" fill="none" xmlns="http://www.w3.org/2000/svg">
<rect x="2.5" y="2.5" width="123" height="65" rx="2.5" stroke="#EEEEEE" stroke-width="5"/>
<rect x="104" y="48" width="10" height="4" stroke="#EEEEEE" stroke-width="4"/>
<rect x="86" y="48" width="10" height="4" stroke="#EEEEEE" stroke-width="4"/>
<rect x="68" y="48" width="10" height="4" stroke="#EEEEEE" stroke-width="4"/>
<rect x="50" y="48" width="10" height="4" stroke="#EEEEEE" stroke-width="4"/>
<rect x="32" y="48" width="10" height="4" stroke="#EEEEEE" stroke-width="4"/>
<rect x="14" y="48" width="10" height="4" stroke="#EEEEEE" stroke-width="4"/>
<rect x="104" y="33" width="10" height="4" stroke="#EEEEEE" stroke-width="4"/>
<rect x="86" y="33" width="10" height="4" stroke="#EEEEEE" stroke-width="4"/>
<rect x="68" y="33" width="10" height="4" stroke="#EEEEEE" stroke-width="4"/>
<rect x="50" y="33" width="10" height="4" stroke="#EEEEEE" stroke-width="4"/>
<rect x="32" y="33" width="10" height="4" stroke="#EEEEEE" stroke-width="4"/>
<rect x="14" y="33" width="10" height="4" stroke="#EEEEEE" stroke-width="4"/>
<rect x="104" y="18" width="10" height="4" stroke="#EEEEEE" stroke-width="4"/>
<rect x="86" y="18" width="10" height="4" stroke="#EEEEEE" stroke-width="4"/>
<rect x="68" y="18" width="10" height="4" stroke="#EEEEEE" stroke-width="4"/>
<rect x="50" y="18" width="10" height="4" stroke="#EEEEEE" stroke-width="4"/>
<rect x="32" y="18" width="10" height="4" stroke="#EEEEEE" stroke-width="4"/>
<rect x="14" y="18" width="10" height="4" stroke="#EEEEEE" stroke-width="4"/>
</svg>
